<?xml version="1.0" encoding="utf-8"?>
<!-- Generator: Adobe Illustrator 23.0.3, SVG Export Plug-In . SVG Version: 6.00 Build 0)  -->
<svg version="1.1" id="Calque_1" xmlns="http://www.w3.org/2000/svg" xmlns:xlink="http://www.w3.org/1999/xlink" x="0px" y="0px"
	 viewBox="0 0 841.89 595.28" style="enable-background:new 0 0 841.89 595.28;" xml:space="preserve">
<style type="text/css">
	.st0{fill:none;}
</style>
<g>
	<g>
		<rect y="259.66" class="st0" width="841.89" height="184.47"/>
		<path d="M289.78,262.94h-4.79v-3.28h13.65v3.28h-4.91v9.83h-3.95V262.94z"/>
		<path d="M311.67,267.89h-7.39v4.87h-3.97v-13.1h3.97v4.96h7.39v-4.96h3.97v13.1h-3.97V267.89z"/>
		<path d="M317.35,259.66h13.61v3.28h-9.68v1.68h5.08v3.28h-5.08v1.6h9.68v3.28h-13.61V259.66z"/>
		<path d="M354.46,259.66c0.22,0,0.45,0.06,0.68,0.19c0.23,0.13,0.44,0.29,0.63,0.48c0.19,0.2,0.35,0.41,0.47,0.64
			s0.19,0.45,0.19,0.66v8.53c0,0.48-0.07,0.88-0.21,1.21c-0.14,0.33-0.33,0.6-0.56,0.81c-0.23,0.21-0.5,0.36-0.8,0.45
			c-0.3,0.09-0.61,0.14-0.91,0.14h-12.79v-7.77h3.97v4.45h7.2c0.1,0,0.15-0.03,0.15-0.08V263c0-0.06-0.05-0.08-0.15-0.08h-11.17
			v-3.25H354.46z"/>
		<path d="M375.22,272.76h-4.24l-0.99-1.72h-7.33l-0.97,1.72h-4.26l6.97-13.1h3.84L375.22,272.76z M366.34,264.07l-2.02,3.67h4.03
			L366.34,264.07z"/>
		<path d="M376.59,272.76v-7.77h10.69c0.1,0,0.15-0.03,0.15-0.08v-1.89c0-0.06-0.05-0.08-0.15-0.08h-10.69v-3.28h12.83
			c0.21,0,0.43,0.06,0.66,0.19c0.23,0.13,0.45,0.29,0.65,0.48c0.2,0.2,0.37,0.41,0.49,0.64s0.19,0.45,0.19,0.66v4.05
			c0,0.43-0.09,0.81-0.27,1.13c-0.18,0.32-0.42,0.59-0.71,0.8s-0.63,0.37-1.02,0.48c-0.38,0.11-0.77,0.18-1.17,0.19l4.93,4.47h-5.54
			l-5.02-4.47h-2.06v4.47H376.59z"/>
		<path d="M411.84,272.76h-5.23l-4.7-4.85h-3.95v4.85h-3.97v-13.1h3.97v4.96h3.82l4.83-4.96h5.23l-6.22,6.55L411.84,272.76z"/>
		<path d="M464.61,272.76h-5.23l-4.7-4.85h-3.95v4.85h-3.97v-13.1h3.97v4.96h3.82l4.83-4.96h5.23l-6.22,6.55L464.61,272.76z"/>
		<path d="M468.72,269.49v-6.55h-2.79v-3.28h9.53v3.28h-2.79v6.55h2.79v3.28h-9.53v-3.28H468.72z"/>
		<path d="M481.92,262.94h-4.79v-3.28h13.65v3.28h-4.91v9.83h-3.95V262.94z"/>
		<path d="M492.7,261c0.17-0.31,0.39-0.56,0.67-0.77s0.6-0.35,0.95-0.44c0.35-0.09,0.71-0.14,1.09-0.14h9.37
			c0.35,0,0.7,0.05,1.05,0.16s0.67,0.26,0.95,0.47s0.51,0.47,0.69,0.78c0.18,0.31,0.27,0.66,0.27,1.05v2.31h-3.97v-1.49h-7.37v6.55
			h7.37v-1.47h3.97v2.29c0,0.41-0.09,0.76-0.27,1.06c-0.18,0.3-0.41,0.56-0.69,0.77s-0.6,0.37-0.95,0.47s-0.7,0.16-1.05,0.16h-9.37
			c-0.38,0-0.74-0.05-1.09-0.14c-0.35-0.09-0.67-0.24-0.95-0.44c-0.28-0.2-0.5-0.46-0.67-0.77c-0.17-0.31-0.25-0.68-0.25-1.11v-8.19
			C492.45,261.68,492.54,261.31,492.7,261z"/>
		<path d="M520.77,267.89h-7.39v4.87h-3.97v-13.1h3.97v4.96h7.39v-4.96h3.97v13.1h-3.97V267.89z"/>
		<path d="M526.45,259.66h13.61v3.28h-9.68v1.68h5.08v3.28h-5.08v1.6h9.68v3.28h-13.61V259.66z"/>
		<path d="M545.71,265.27v7.5h-3.97v-13.1h4.18l7.16,7.58v-7.58h3.95v13.1h-4.12L545.71,265.27z"/>
		<path d="M284.07,275.39v-1.05H411.9v1.05H284.07z"/>
		<path d="M445.84,275.39v-1.05h111.99v1.05H445.84z"/>
	</g>
	<g>
		<path d="M441.22,281.18c-0.43-0.12-0.73-0.41-1.04-0.71c-2.05-2.04-4.1-4.07-6.14-6.1c-0.3-0.3-0.33-0.56-0.09-0.91
			c0.06-0.1,0.14-0.19,0.23-0.3c-2-1.99-4-3.98-6-5.96c-2.05,2.06-4.1,4.1-6.14,6.15c0.08,0.11,0.19,0.22,0.28,0.35
			c0.18,0.27,0.15,0.44-0.08,0.67c-2.06,2.05-4.12,4.09-6.17,6.14c-0.29,0.28-0.6,0.5-1.03,0.5c-0.08,0-0.17-0.01-0.25-0.03
			c-0.69-0.22-1.19-0.66-1.49-1.31c-0.13-0.29-0.11-0.6,0.04-0.88c0.12-0.21,0.27-0.42,0.44-0.59c2.03-2.04,4.07-4.07,6.09-6.1
			c0.22-0.22,0.48-0.23,0.69-0.12c0.15,0.08,0.28,0.18,0.44,0.28c2.01-2.04,4.04-4.08,6.03-6.1c-0.43-0.45-0.89-0.95-1.37-1.42
			c-0.92-0.91-1.85-1.81-2.76-2.73c-0.16-0.17-0.35-0.21-0.56-0.22c-0.41-0.02-0.79,0.1-1.13,0.32c-0.2,0.13-0.39,0.28-0.57,0.44
			c-0.32,0.27-0.66,0.51-1.09,0.56c-0.43,0.05-0.79-0.04-1.09-0.39c-2.37-2.78-4.74-5.54-7.12-8.31c-0.02-0.03-0.04-0.05-0.05-0.1
			c0.04,0.03,0.08,0.06,0.11,0.09c2.27,2.11,4.55,4.21,6.82,6.32c0.34,0.31,0.61,0.36,1.02,0.15c0.3-0.15,0.57-0.36,0.78-0.63
			c0.28-0.38,0.27-0.76-0.04-1.12c-2.11-2.49-4.21-4.98-6.32-7.47c-0.04-0.04-0.07-0.08-0.09-0.15c0.04,0.03,0.07,0.06,0.1,0.09
			c2.4,2.18,4.8,4.37,7.2,6.55c0.35,0.32,0.72,0.36,1.12,0.12c0.41-0.25,0.72-0.58,0.84-1.06c0.09-0.35,0.01-0.67-0.24-0.95
			c-2.11-2.31-4.22-4.62-6.33-6.93c-0.02-0.03-0.05-0.06-0.06-0.1c0.44,0.38,0.89,0.75,1.33,1.13c2.39,2.02,4.77,4.04,7.16,6.06
			c0.28,0.24,0.38,0.54,0.33,0.9c-0.08,0.54-0.29,1.03-0.59,1.49c-0.32,0.49-0.53,1.02-0.62,1.6c-0.01,0.06,0,0.15,0.04,0.2
			c0.14,0.2,0.27,0.4,0.44,0.57c1.22,1.23,2.45,2.46,3.68,3.69c0.07,0.07,0.13,0.14,0.17,0.19c1.2-1.18,2.39-2.35,3.59-3.53
			c-0.12-0.14-0.24-0.27-0.36-0.39c-0.57-0.63-1.13-1.26-1.72-1.87c-0.24-0.25-0.28-0.53-0.28-0.84c0-0.4,0.21-0.69,0.47-0.95
			c2.52-2.54,5.05-5.08,7.58-7.62c0.21-0.21,0.45-0.37,0.74-0.44c0.42-0.1,0.8-0.02,1.11,0.3c1.3,1.29,2.59,2.57,3.89,3.86
			c0.26,0.26,0.52,0.53,0.79,0.78c0.33,0.3,0.6,0.63,0.7,1.08c0,0.12,0,0.25,0,0.37c-0.1,0.34-0.27,0.63-0.52,0.88
			c-2.56,2.55-5.11,5.11-7.67,7.67c-0.58,0.58-1.31,0.58-1.9-0.01c-0.55-0.55-1.1-1.11-1.64-1.66c-0.04-0.04-0.08-0.08-0.1-0.1
			c-1.19,1.19-2.37,2.37-3.56,3.57c1.99,1.97,3.99,3.95,5.98,5.92c0.15-0.08,0.32-0.19,0.5-0.25c0.25-0.08,0.48-0.06,0.67,0.16
			c0.13,0.15,0.28,0.28,0.41,0.42c1.96,1.96,3.91,3.92,5.87,5.88c0.08,0.08,0.16,0.16,0.23,0.25c0.41,0.5,0.45,1.04,0.08,1.58
			c-0.35,0.52-0.81,0.92-1.43,1.1C441.46,281.18,441.34,281.18,441.22,281.18z M434.02,259.34c0,0.37,0.09,0.57,0.31,0.66
			c0.26,0.1,0.64,0.03,0.83-0.15c0.35-0.34,0.69-0.69,1.04-1.03c1.58-1.54,3.16-3.08,4.73-4.63c0.37-0.37,0.38-0.74,0.05-1.15
			c-0.29-0.36-0.56-0.38-0.88-0.05c-1.96,1.96-3.91,3.93-5.87,5.89C434.07,259.03,434,259.18,434.02,259.34z M432.82,258.38
			c0.24,0,0.43-0.06,0.61-0.25c0.51-0.52,1.04-1.02,1.57-1.52c1.42-1.38,2.83-2.76,4.24-4.14c0.24-0.24,0.28-0.5,0.14-0.78
			c-0.15-0.3-0.47-0.51-0.77-0.46c-0.12,0.02-0.25,0.08-0.33,0.17c-1.94,1.94-3.87,3.89-5.81,5.83c-0.2,0.2-0.24,0.4-0.22,0.65
			C432.29,258.22,432.47,258.38,432.82,258.38z M435.77,261.06c0,0.33,0.04,0.56,0.31,0.68c0.25,0.11,0.63,0.04,0.81-0.14
			c0.74-0.73,1.49-1.46,2.23-2.19c1.19-1.17,2.38-2.34,3.56-3.52c0.35-0.35,0.33-0.75-0.02-1.09c-0.29-0.28-0.62-0.24-0.96,0.1
			c-1.9,1.91-3.79,3.81-5.7,5.71C435.84,260.76,435.75,260.92,435.77,261.06z M419.74,275.92c-0.02-0.03-0.05-0.08-0.09-0.12
			c-0.39-0.39-0.78-0.77-1.17-1.15c-0.13-0.12-0.32-0.12-0.44,0.01c-0.12,0.12-0.12,0.3,0.01,0.41c0.38,0.37,0.77,0.74,1.16,1.12
			c0.1,0.1,0.21,0.14,0.34,0.09C419.68,276.23,419.72,276.1,419.74,275.92z M419.05,273.74c-0.1,0.08-0.23,0.14-0.3,0.24
			c-0.09,0.13-0.01,0.24,0.1,0.35c0.38,0.37,0.75,0.75,1.13,1.13c0.12,0.12,0.28,0.12,0.4,0.01c0.13-0.12,0.14-0.33,0.03-0.44
			c-0.39-0.39-0.79-0.78-1.19-1.16C419.18,273.82,419.13,273.79,419.05,273.74z M416.75,279.07c-0.06-0.08-0.08-0.14-0.12-0.18
			c-0.4-0.39-0.79-0.77-1.19-1.16c-0.11-0.11-0.31-0.1-0.43,0.02c-0.11,0.12-0.11,0.28,0.01,0.4c0.38,0.38,0.77,0.75,1.14,1.14
			c0.11,0.11,0.23,0.17,0.35,0.09C416.61,279.31,416.66,279.18,416.75,279.07z M440.51,277.17c-0.01-0.18-0.06-0.29-0.2-0.36
			c-0.13-0.06-0.23-0.04-0.34,0.07c-0.38,0.38-0.78,0.76-1.17,1.13c-0.1,0.09-0.08,0.3,0.03,0.42c0.1,0.11,0.28,0.12,0.39,0.02
			c0.41-0.39,0.81-0.79,1.22-1.18C440.48,277.24,440.5,277.19,440.51,277.17z M416.82,276.12c-0.18,0.01-0.3,0.05-0.36,0.2
			c-0.06,0.14-0.01,0.24,0.1,0.34c0.39,0.37,0.78,0.75,1.17,1.13c0.11,0.1,0.28,0.09,0.39-0.01c0.12-0.12,0.13-0.31,0.02-0.41
			c-0.4-0.38-0.79-0.77-1.19-1.15C416.9,276.16,416.85,276.13,416.82,276.12z M438.36,277.76c0.02-0.01,0.08-0.04,0.12-0.08
			c0.4-0.39,0.79-0.79,1.19-1.18c0.11-0.11,0.1-0.29-0.01-0.4c-0.12-0.12-0.3-0.12-0.41-0.01c-0.38,0.38-0.76,0.76-1.15,1.13
			c-0.12,0.11-0.12,0.22-0.07,0.34C438.07,277.7,438.18,277.76,438.36,277.76z M418.97,276.71c-0.01-0.02-0.04-0.09-0.09-0.13
			c-0.38-0.38-0.77-0.76-1.16-1.14c-0.12-0.12-0.31-0.11-0.43,0.01c-0.12,0.12-0.11,0.29,0.01,0.41c0.37,0.37,0.75,0.73,1.12,1.11
			c0.1,0.11,0.21,0.15,0.34,0.1C418.91,277.01,418.96,276.9,418.97,276.71z M417.5,278.32c-0.06-0.09-0.09-0.16-0.14-0.21
			c-0.38-0.38-0.77-0.75-1.15-1.13c-0.12-0.12-0.3-0.12-0.43,0.01c-0.12,0.12-0.12,0.29,0,0.41c0.38,0.37,0.77,0.74,1.16,1.12
			c0.1,0.1,0.22,0.16,0.34,0.09C417.37,278.54,417.42,278.42,417.5,278.32z M439,275.6c-0.02-0.16-0.06-0.28-0.2-0.33
			c-0.13-0.05-0.23-0.04-0.34,0.07c-0.38,0.38-0.77,0.75-1.16,1.12c-0.11,0.1-0.1,0.3,0.02,0.42c0.11,0.11,0.28,0.12,0.39,0.01
			c0.41-0.39,0.81-0.79,1.22-1.18C438.96,275.68,438.98,275.63,439,275.6z M435.98,275.48c0.1-0.06,0.17-0.09,0.22-0.14
			c0.4-0.38,0.8-0.77,1.2-1.15c0.11-0.1,0.1-0.28-0.01-0.4c-0.12-0.13-0.3-0.15-0.41-0.04c-0.39,0.39-0.78,0.79-1.18,1.17
			c-0.11,0.11-0.12,0.22-0.05,0.33C435.79,275.34,435.9,275.4,435.98,275.48z M439.79,279.35c0.1-0.06,0.17-0.09,0.22-0.14
			c0.38-0.37,0.76-0.74,1.14-1.11c0.13-0.13,0.14-0.29,0.01-0.42c-0.13-0.13-0.3-0.13-0.44,0c-0.37,0.37-0.75,0.74-1.13,1.1
			c-0.11,0.11-0.15,0.22-0.08,0.34C439.58,279.21,439.69,279.26,439.79,279.35z M438.27,274.77c-0.08-0.09-0.14-0.2-0.23-0.26
			c-0.11-0.07-0.23-0.06-0.34,0.06c-0.38,0.39-0.77,0.76-1.16,1.14c-0.1,0.1-0.09,0.29,0.02,0.4c0.11,0.11,0.29,0.12,0.39,0.02
			c0.4-0.39,0.8-0.78,1.2-1.18C438.19,274.92,438.22,274.86,438.27,274.77z"/>
	</g>
</g>
<g>
</g>
<g>
</g>
<g>
</g>
<g>
</g>
<g>
</g>
<g>
</g>
</svg>
